<svg id="Layer_1" data-name="Layer 1" xmlns="http://www.w3.org/2000/svg" viewBox="0 0 400.80688 423.7715">
	<path d="M1392.02783,693.85742c-.41772-11.95892-2.04016-16.58087,15.03491-15.73633,11.432.56549,21.92151-2.95733,31.31592-9.66565,6.09326-4.35107,9.80591-10.2536,12.08045-17.22985.36535-1.12037.94616-2.37732.20886-3.33966-1.10938-1.44776-2.49146-.11152-3.60864.22961-10.02369,3.06036-20.14942,4.04706-30.46167,1.76788a34.26343,34.26343,0,0,1-10.07715-4.22845,2.69955,2.69955,0,0,1-1.45142-2.9184c.24463-1.6048,1.4458-1.62628,2.62915-1.58075,10.49536.40387,20.853-1.33526,31.28064-1.94848,13.14246-.77289,26.27625-.95392,37.92224,6.82757V630.0423c-2.16064-7.24536-3.08984-14.82678-6.282-21.79749-14.547-31.76605-39.56616-49.80011-73.46362-56.29028-2.77515-.53137-5.53784-1.17316-8.3772-.88678-2.37939.24-4.05713-.74292-5.68237-2.40088-20.60474-21.02155-45.44239-25.82574-73.24146-18.852-2.91736.73181-5.2644.66962-7.82153-1.16107-11.75769-8.41712-25.19531-12.97345-39.02686-16.557-5.72832-.93007-11.61721-1.59674-16.9917,0-5.23333,2.023-10.35278,3.176-14.22558,7.56152-6.595,7.4679-4.67713,15.32727,4.68384,18.62684,1.69677.59808,3.90527.21252,5.44922,2.26342-1.50293.64972-2.72852,1.11316-3.89527,1.69495-5.85351,2.919-11.26391,6.36444-14.67078,12.23975-3.86364,6.6629-3.07141,13.60534,2.6283,16.56988,3.83252,1.99335,2.415,3.15668.408,5.1839-5.252,5.30463-9.04248,11.49457-9.88513,19.03442-.55017,4.92267.44861,9.66645,4.64673,12.88843,4.39026,3.36957,8.81433,1.87811,12.95666-.72449,2.19824-1.38116,4.2-3.07519,6.41382-4.71972-1.89819,10.40283-5.21777,20.402-4.64819,30.98065a45.19689,45.19689,0,0,0-.80042,5.36291c-.55237,17.05481-1.78308,34.046-3.80847,50.9997-.56384,4.719-2.59521,9.37366-1.31128,14.27624-.96191,2.41993-1.8977,4.85047-2.89087,7.25733a159.29934,159.29934,0,0,0-11.04175,40.33032c-3.07177,10.54712-4.22461,21.45477-5.93847,32.24756-4.9762,31.33795-9.42066,62.766-16.90332,93.65515-.68457,2.82623-1.66162,4.07758-4.73487,4.50519-16.39624,2.28119-32.86743,1.8258-49.3313,1.78094-10.97717-.02984-21.96142-.48938-32.908.79035-9.52832,1.114-18.251,3.62982-23.113,13.0166v8.99585c6.00366,12.69891,17.54663,17.48462,29.98535,20.99029h20.98975c11.96-2.48333,23.85925-5.18219,35.09912-10.15014,4.4917-1.98535,8.96069-4.02228,13.59863-6.10706.84741,3.4419-2.03723,5.87244-1.42065,9.28577,9.26391-3.76251,18.25659-8.04706,25.47265-14.44623,10.05969-8.92108,21.68677-10.30987,34.05884-10.391m-.7804-1.53013c-.57763,3.14441-2.91589,5.80377-2.67627,10.094,4.56092-4.37506,8.51648-8.446,13.29053-11.50335q1.18727.16187,2.37451.32385c-.51965,2.04376-1.8822,3.93762-1.36145,6.89862,2.25806-2.58374,4.83081-3.97125,5.74268-6.83832q11.06286-1.3081,22.12317-2.61456c4.6134,2.2287,7.6261,6.31848,11.30481,9.64569,3.68677,3.33447,6.00415,7.95447,10.40039,10.624,5.76733,3.5022,9.69116,3.00128,13.759-2.37463,1.14368-1.51142,1.84668-2.05731,3.93945-1.65772,8.0105,1.52954,12.641-2.3012,13.29761-10.53058a27.82037,27.82037,0,0,0-4.24658-17.56866c13.301-6.149,26.0686-13.123,36.89014-23.22858,18.88574-17.636,29.00024-39.80511,33.05359-64.89337,5.30847-32.85675-1.65581-65.359-5.98914-97.359m-54.73828-130.39144c5.66992-2.29339,12.39538.184,18.19946,2.7544,10.80908,4.78686,22.5166,18.72253,21.63757,33.253-.50744,14.80926-6.95593,26.12982-20.34167,32.86053-13.54053,6.80854-26.67847,5.26362-39.07043-3.24279a7.87309,7.87309,0,0,1-2.69129-2.85358C1303.34375,601.129,1311.51025,573.608,1337.26172,563.19189Z" transform="translate(-1079.59424 -507.63323)" fill="none" stroke="currentcolor" stroke-width="7"/>
    <path d="M1348.96265,582.06378a19.506,19.506,0,0,0-20.02466,19.1745c-.11621,11.163,8.20312,19.80078,19.1864,19.9209,11.1908.12231,19.86462-8.15851,20.00891-19.10223A19.34284,19.34284,0,0,0,1348.96265,582.06378Zm3.01867,31.76972A12.63629,12.63629,0,0,1,1339.157,600.875c.05664-7.7475,5.32154-12.74847,13.32324-12.65533a12.58031,12.58031,0,0,1,12.2627,12.31207C1364.77319,607.35944,1358.5813,613.81342,1351.98132,613.8335Z" transform="translate(-1079.59424 -507.63323)" fill="currentcolor"/>
	<path d="M1352.79456,598.78052c-1.84839-2.64685-.08216-4.63245,1.57971-6.54376-4.57678-.99543-8.16736.51916-10.48426,4.52636-1.93371,3.34467-1.39733,6.70435.93262,9.7027,2.54968,3.28107,6.05823,3.82843,9.81189,2.83423,4.91577-1.302,7.04028-6.3811,4.158-9.57727C1356.48792,601.34735,1354.36987,601.03625,1352.79456,598.78052Z" transform="translate(-1079.59424 -507.63323)" fill="currentcolor"/>
</svg>